<svg width="43" height="50" viewBox="0 0 43 50" fill="none" xmlns="http://www.w3.org/2000/svg">
<path d="M42.9885 49.7037L-0.0203857 49.939C-0.0203857 49.7037 0.0827532 50.1742 -0.0203857 49.939C1.32042 48.5275 7.61189 47.5865 8.64328 48.1746C9.4684 46.2926 11.0155 45.8221 12.9751 45.3516C13.6971 45.1164 14.5222 45.1164 15.3473 45.3516C15.3473 43.9401 16.1724 42.6463 17.4101 42.2934C17.4101 42.1758 17.307 42.0581 17.307 42.0581C17.1007 40.7643 17.8226 39.588 18.9572 39.3528C19.9886 31.1191 20.9168 25.7083 20.9168 25.7083C21.02 25.2378 21.2262 24.885 21.6388 24.885C22.1545 24.885 22.3608 25.2378 22.4639 25.7083C22.4639 25.7083 23.289 30.4133 24.3204 39.3528C25.3518 39.7056 25.9706 40.8819 25.7643 42.0581C25.7643 42.0581 25.7643 42.1758 25.6612 42.2934C26.8989 42.6463 27.724 43.9401 27.8271 45.3516C28.5491 45.1164 29.3742 45.1164 30.1993 45.3516C32.159 45.8221 33.706 46.2926 34.5312 48.1746C35.4594 47.5865 41.6477 48.2922 42.9885 49.7037Z" fill="url(#paint0_linear_59_52)"/>
<path fill-rule="evenodd" clip-rule="evenodd" d="M28.6784 16.3514C28.7569 16.4551 28.7855 16.5759 28.7627 16.7125L27.3864 21.9261C27.3685 21.9898 27.3346 22.0471 27.2837 22.0994C27.2158 22.1665 27.1246 22.2068 27.0112 22.2177L25.9238 22.2141C25.7707 22.2079 25.6582 22.1397 25.585 22.0068C25.585 22.0068 24.0822 19.0784 23.9712 18.9042C23.8456 18.7066 23.5382 18.7005 23.3792 18.9017C23.2517 19.0627 22.4645 20.6858 22.4645 20.6858C22.3607 20.8675 22.2463 20.9774 22.0378 20.9713L21.2443 20.9681C21.0385 20.9606 20.901 20.8299 20.8066 20.6457C20.8066 20.6457 20.0534 19.0694 19.9142 18.8906C19.756 18.6881 19.3748 18.6881 19.1965 18.8883C19.0287 19.0763 17.5642 21.9823 17.5642 21.9823C17.5522 22.0043 17.5307 22.0335 17.4958 22.0677C17.4157 22.1483 17.3253 22.1873 17.2234 22.1873L16.1353 22.1837C15.9313 22.1714 15.8072 22.0727 15.7626 21.8908L14.4189 16.6674C14.3979 16.5294 14.4256 16.41 14.5057 16.3063L17.2279 13.2046C17.2795 13.1485 17.3844 13.1535 17.4093 13.2266C17.729 14.1708 18.4312 15.1063 18.4312 15.1063C17.7782 13.6242 17.4597 11.2865 17.4469 10.9889C17.4284 10.5377 17.4164 10.1059 17.4149 9.70602C17.4276 7.56072 17.716 5.79946 18.2813 4.42262C18.8462 3.04437 19.8703 1.61268 21.353 0.123457C21.4324 0.0430461 21.5283 0.00156686 21.6384 0.000244627C21.7494 -0.00337927 21.8415 0.0333005 21.9147 0.10759C23.3206 1.53702 24.3216 2.98707 24.9174 4.46043C25.5128 5.93247 25.8114 7.68991 25.8099 9.73389C25.8022 10.606 25.7484 11.6085 25.6529 12.7318C25.5268 13.7236 25.2447 14.5282 24.9611 15.1648C24.9611 15.1648 25.6994 14.3696 25.9326 13.2545C25.9491 13.1764 26.0654 13.1668 26.1173 13.2266L28.6784 16.3514ZM21.5914 7.02238L22.2061 8.42336H23.2343L22.4165 6.72257L23.1674 5.08937H22.1435L21.5914 6.40847L21.0388 5.08937H20.0152L20.7662 6.72257L19.9483 8.42336H20.9766L21.5914 7.02238Z" fill="url(#paint1_linear_59_52)"/>
<defs>
<linearGradient id="paint0_linear_59_52" x1="-0.0203857" y1="37.4459" x2="42.9885" y2="37.4459" gradientUnits="userSpaceOnUse">
<stop stop-color="#F4973B"/>
<stop offset="1" stop-color="#E14441"/>
</linearGradient>
<linearGradient id="paint1_linear_59_52" x1="21.5912" y1="0" x2="21.5912" y2="22.2177" gradientUnits="userSpaceOnUse">
<stop stop-color="#F4973B"/>
<stop offset="1" stop-color="#E14441"/>
</linearGradient>
</defs>
</svg>
